<svg width="165" height="32" viewBox="0 0 165 32" fill="none" xmlns="http://www.w3.org/2000/svg">
<g clip-path="url(#clip0_27_1926)">
<path d="M159.225 32H0L5.775 0H165L159.225 32Z" fill="#E7EAF9"/>
<path d="M34.8808 9.82178L32.8513 21.2761H30.5248L31.8448 13.8587L27.4558 21.2761H25.6903L23.9248 13.8423L22.6048 21.2761H20.2783L22.3243 9.82178H24.9478L27.1093 18.3223L32.2573 9.82178H34.8808Z" fill="#1A2254"/>
<path d="M38.3295 12.1846L39.5505 18.5353L43.098 12.1846H45.5565L37.521 25.5753H35.0625L37.8345 21.0461L35.739 12.1846H38.3295Z" fill="#1A2254"/>
<path d="M59.5814 21.2759H57.2549L53.4434 13.4154L52.0409 21.2759H49.7144L51.7604 9.80518H54.0704L57.8984 17.6821L59.3009 9.80518H61.6109L59.5814 21.2759Z" fill="#1A2254"/>
<path d="M70.323 12.9971C71.0078 13.6371 71.346 14.4986 71.346 15.5817C71.346 15.9345 71.3213 16.2463 71.2635 16.5171C71.1975 16.8453 71.1233 17.1325 71.049 17.3704H64.3665C64.3583 17.4443 64.35 17.5592 64.35 17.6986C64.35 18.2648 64.515 18.7161 64.8533 19.0361C65.1915 19.3561 65.6288 19.5202 66.1815 19.5202C66.6435 19.5202 67.0395 19.4217 67.3778 19.2166C67.716 19.0115 67.9883 18.7489 68.1945 18.4207H70.686C70.2818 19.2986 69.6465 20.0125 68.7968 20.5786C67.947 21.1448 66.9818 21.4238 65.901 21.4238C64.7378 21.4238 63.7973 21.0956 63.096 20.4392C62.3948 19.7828 62.04 18.8884 62.04 17.7643C62.04 17.4361 62.073 17.0915 62.139 16.7304C62.304 15.7869 62.6423 14.9663 63.1538 14.2525C63.6653 13.5386 64.3005 12.9971 65.0595 12.6115C65.8185 12.2258 66.6518 12.0371 67.551 12.0371C68.7143 12.0371 69.6383 12.3571 70.323 12.9971ZM69.003 15.5981C69.003 15.073 68.8298 14.6628 68.4915 14.3674C68.1533 14.072 67.7078 13.9243 67.155 13.9243C66.5693 13.9243 66.0495 14.1048 65.5875 14.474C65.1255 14.8433 64.8038 15.3438 64.614 15.9756H68.97C68.9948 15.8033 69.003 15.672 69.003 15.5981Z" fill="#1A2254"/>
<path d="M86.4597 12.1846L82.1696 21.2759H79.6616L79.1336 14.9579L76.3286 21.2759H73.8207L72.7646 12.1846H75.0911L75.4872 19.1097L78.4737 12.1846H80.9157L81.4107 19.0933L84.2321 12.1846H86.4597Z" fill="#1A2254"/>
<path d="M87.9037 21.0874C87.3592 20.8658 86.9302 20.554 86.6167 20.152C86.3032 19.7499 86.1465 19.2986 86.1465 18.7817C86.1465 18.7079 86.1547 18.5766 86.1795 18.4043H88.4235C88.3905 18.7899 88.506 19.0935 88.77 19.3315C89.034 19.5694 89.4052 19.6843 89.892 19.6843C90.3292 19.6843 90.7005 19.6022 90.9892 19.4463C91.278 19.2904 91.4265 19.0525 91.4265 18.7489C91.4265 18.4781 91.2945 18.2566 91.0222 18.0925C90.75 17.9284 90.3292 17.7397 89.7435 17.5345C89.1577 17.3294 88.6792 17.1243 88.2915 16.9274C87.9037 16.7304 87.5737 16.4597 87.3015 16.1069C87.0292 15.754 86.889 15.311 86.889 14.7776C86.889 14.2443 87.0457 13.7684 87.3592 13.3499C87.6727 12.9315 88.11 12.6115 88.671 12.3817C89.232 12.152 89.8755 12.0371 90.6015 12.0371C91.3275 12.0371 91.905 12.152 92.433 12.3817C92.961 12.6115 93.3735 12.9315 93.6622 13.3417C93.951 13.752 94.0995 14.2197 94.0995 14.7448C94.0995 14.8761 94.0995 14.9745 94.083 15.0402H91.938C91.971 14.6545 91.8637 14.351 91.608 14.1212C91.3522 13.8915 90.9892 13.7766 90.5025 13.7766C90.1065 13.7766 89.7847 13.8586 89.529 14.031C89.2732 14.2033 89.1495 14.4248 89.1495 14.712C89.1495 14.9992 89.2897 15.2289 89.5785 15.4094C89.8672 15.5899 90.3045 15.7869 90.8985 16.0084C91.4925 16.2381 91.971 16.4515 92.3257 16.6402C92.6805 16.8289 92.994 17.0915 93.258 17.4279C93.522 17.7643 93.654 18.1828 93.654 18.6833C93.654 19.2412 93.4807 19.7253 93.1425 20.1438C92.8042 20.5622 92.334 20.874 91.74 21.0956C91.146 21.3171 90.4777 21.4238 89.727 21.4238C89.0587 21.4238 88.4482 21.3089 87.9037 21.0874Z" fill="#1A2254"/>
<path d="M103.307 9.82178L104.841 18.9295L109.626 9.82178H112.085L105.831 21.2761H103.026L100.832 9.82178H103.307Z" fill="#1A2254"/>
<path d="M112.703 14.2525C113.19 13.5386 113.792 12.9971 114.494 12.6115C115.195 12.2258 115.937 12.0371 116.721 12.0371C117.406 12.0371 117.975 12.1766 118.445 12.4474C118.916 12.7181 119.254 13.0628 119.477 13.4812L119.708 12.1848H122.034L120.417 21.2761H118.091L118.338 19.9469C117.975 20.3735 117.505 20.7263 116.927 21.0053C116.35 21.2843 115.723 21.4238 115.038 21.4238C114.353 21.4238 113.776 21.2761 113.256 20.9725C112.736 20.6689 112.34 20.2422 112.052 19.6925C111.763 19.1428 111.623 18.4945 111.623 17.7643C111.623 17.4279 111.656 17.0669 111.722 16.6976C111.887 15.7786 112.217 14.9663 112.703 14.2525ZM118.965 16.1069C118.965 15.4586 118.775 14.9581 118.396 14.5971C118.016 14.2361 117.538 14.0556 116.969 14.0556C116.54 14.0556 116.127 14.1622 115.723 14.3674C115.319 14.5725 114.972 14.8761 114.675 15.2781C114.378 15.6802 114.18 16.1479 114.081 16.6976C114.048 16.9028 114.032 17.0997 114.032 17.2884C114.032 17.9448 114.221 18.4617 114.593 18.8392C114.964 19.2166 115.442 19.4053 116.012 19.4053C116.441 19.4053 116.861 19.2986 117.266 19.0853C117.67 18.872 118.025 18.5602 118.313 18.1581C118.602 17.7561 118.8 17.2802 118.899 16.7304C118.94 16.4433 118.965 16.2381 118.965 16.1069Z" fill="#1A2254"/>
<path d="M132.99 12.1846L131.373 21.2759H129.063L129.261 20.1271C128.906 20.521 128.477 20.8328 127.957 21.0543C127.438 21.2759 126.893 21.3907 126.324 21.3907C125.375 21.3907 124.633 21.1364 124.08 20.6276C123.527 20.1189 123.255 19.3969 123.255 18.4533C123.255 18.1005 123.28 17.7887 123.337 17.5179L124.278 12.1846H126.588L125.697 17.1897C125.664 17.3866 125.647 17.5753 125.647 17.7641C125.647 18.2974 125.796 18.7159 126.093 19.003C126.39 19.2902 126.811 19.4379 127.347 19.4379C127.974 19.4379 128.51 19.241 128.947 18.8553C129.385 18.4697 129.665 17.9117 129.789 17.1897L130.68 12.1846H132.99Z" fill="#1A2254"/>
<path d="M138.204 9.13232L136.042 21.2759H133.716L135.877 9.13232H138.204Z" fill="#1A2254"/>
<path d="M141.57 18.4699C141.561 18.5355 141.553 18.6258 141.553 18.7324C141.553 18.954 141.619 19.1099 141.743 19.2001C141.867 19.2904 142.081 19.3396 142.378 19.3396H143.467L143.121 21.276H141.652C140.002 21.276 139.177 20.595 139.177 19.2247C139.177 18.9622 139.202 18.7078 139.243 18.4534L140.019 14.0719H138.93L139.26 12.1847H140.365L140.761 9.93652H143.088L142.692 12.1847H144.721L144.391 14.0719H142.345L141.57 18.4699Z" fill="#1A2254"/>
</g>
<defs>
<clipPath id="clip0_27_1926">
<rect width="165" height="32" fill="white"/>
</clipPath>
</defs>
</svg>
