<svg width="12" height="12" viewBox="0 0 12 12" fill="none" xmlns="http://www.w3.org/2000/svg">
<path d="M6.0001 6.0001C5.2501 6.0001 4.6126 5.7376 4.0876 5.2126C3.5626 4.6876 3.3001 4.0501 3.3001 3.3001C3.3001 2.5501 3.5626 1.9126 4.0876 1.3876C4.6126 0.862598 5.2501 0.600098 6.0001 0.600098C6.7501 0.600098 7.3876 0.862598 7.9126 1.3876C8.4376 1.9126 8.7001 2.5501 8.7001 3.3001C8.7001 4.0501 8.4376 4.6876 7.9126 5.2126C7.3876 5.7376 6.7501 6.0001 6.0001 6.0001ZM0.600098 11.4001V9.6001C0.600098 9.3126 0.678223 9.04072 0.834473 8.78447C0.990723 8.52822 1.20635 8.3126 1.48135 8.1376C2.16885 7.7376 2.89567 7.43135 3.66182 7.21885C4.42799 7.00635 5.20611 6.9001 5.9962 6.9001C6.7863 6.9001 7.56572 7.00635 8.33447 7.21885C9.10322 7.43135 9.83135 7.7376 10.5188 8.1376C10.7938 8.3001 11.0095 8.5126 11.1657 8.7751C11.322 9.0376 11.4001 9.3126 11.4001 9.6001V11.4001H0.600098ZM1.9501 10.0501H10.0501V9.6001C10.0501 9.5354 10.0312 9.47657 9.99338 9.42362C9.95557 9.37069 9.90572 9.32951 9.84385 9.3001C9.26885 8.9501 8.65635 8.6876 8.00635 8.5126C7.35635 8.3376 6.6876 8.2501 6.0001 8.2501C5.3126 8.2501 4.64385 8.3376 3.99385 8.5126C3.34385 8.6876 2.73135 8.9501 2.15635 9.3001C2.09385 9.3501 2.04385 9.39837 2.00635 9.44492C1.96885 9.49147 1.9501 9.5432 1.9501 9.6001V10.0501ZM6.00407 4.6501C6.37642 4.6501 6.69385 4.51752 6.95635 4.25237C7.21885 3.98721 7.3501 3.66846 7.3501 3.29612C7.3501 2.92377 7.21752 2.60635 6.95237 2.34385C6.68721 2.08135 6.36846 1.9501 5.99612 1.9501C5.62377 1.9501 5.30635 2.08267 5.04385 2.34782C4.78135 2.61298 4.6501 2.93173 4.6501 3.30407C4.6501 3.67642 4.78267 3.99385 5.04782 4.25635C5.31299 4.51885 5.63174 4.6501 6.00407 4.6501Z" fill="#112EBE"/>
</svg>
