<svg width="12" height="12" viewBox="0 0 12 12" fill="none" xmlns="http://www.w3.org/2000/svg">
<path d="M5.99998 6.0001C5.24998 6.0001 4.61248 5.7376 4.08748 5.2126C3.56248 4.6876 3.29998 4.0501 3.29998 3.3001C3.29998 2.5501 3.56248 1.9126 4.08748 1.3876C4.61248 0.862598 5.24998 0.600098 5.99998 0.600098C6.74998 0.600098 7.38748 0.862598 7.91248 1.3876C8.43748 1.9126 8.69998 2.5501 8.69998 3.3001C8.69998 4.0501 8.43748 4.6876 7.91248 5.2126C7.38748 5.7376 6.74998 6.0001 5.99998 6.0001ZM0.599976 11.4001V9.6001C0.599976 9.3126 0.678101 9.04072 0.834351 8.78447C0.990601 8.52822 1.20623 8.3126 1.48123 8.1376C2.16873 7.7376 2.89555 7.43135 3.6617 7.21885C4.42786 7.00635 5.20599 6.9001 5.99608 6.9001C6.78618 6.9001 7.5656 7.00635 8.33435 7.21885C9.1031 7.43135 9.83123 7.7376 10.5187 8.1376C10.7937 8.3001 11.0094 8.5126 11.1656 8.7751C11.3219 9.0376 11.4 9.3126 11.4 9.6001V11.4001H0.599976ZM1.94998 10.0501H10.05V9.6001C10.05 9.5354 10.0311 9.47657 9.99326 9.42362C9.95544 9.37069 9.9056 9.32951 9.84373 9.3001C9.26873 8.9501 8.65623 8.6876 8.00623 8.5126C7.35623 8.3376 6.68748 8.2501 5.99998 8.2501C5.31248 8.2501 4.64373 8.3376 3.99373 8.5126C3.34373 8.6876 2.73123 8.9501 2.15623 9.3001C2.09373 9.3501 2.04373 9.39837 2.00623 9.44492C1.96873 9.49147 1.94998 9.5432 1.94998 9.6001V10.0501ZM6.00395 4.6501C6.3763 4.6501 6.69373 4.51752 6.95623 4.25237C7.21873 3.98721 7.34998 3.66846 7.34998 3.29612C7.34998 2.92377 7.2174 2.60635 6.95225 2.34385C6.68709 2.08135 6.36834 1.9501 5.996 1.9501C5.62365 1.9501 5.30623 2.08267 5.04373 2.34782C4.78123 2.61298 4.64998 2.93173 4.64998 3.30407C4.64998 3.67642 4.78255 3.99385 5.0477 4.25635C5.31286 4.51885 5.63161 4.6501 6.00395 4.6501Z" fill="#1A2254"/>
</svg>
